<svg
   xmlns:svg="http://www.w3.org/2000/svg"
   xmlns="http://www.w3.org/2000/svg"
   version="1.1"
   width="478.52982"
   height="478.51581"
   id="svg5152">
  <defs
     id="defs5154" />
  <g
     transform="translate(-155.44937,-254.53284)"
     id="layer1">
    <path
       d="m 394.70728,732.04866 c 131.59659,0 238.27192,-106.67533 238.27192,-238.25791 0,-131.58258 -106.67533,-238.25791 -238.27192,-238.25791 -131.58258,0 -238.25791,106.67533 -238.25791,238.25791 0,131.58258 106.67533,238.25791 238.25791,238.25791"
       id="path786"
       style="fill:#0064b1;fill-opacity:1;fill-rule:nonzero;stroke:none" />
    <path
       d="m 597.87322,524.45978 -0.66772,3.69474 2.13671,0.40063 c -1.13469,0.37823 -1.977,0.9846 -2.53734,1.82511 -0.32221,0.49031 -0.54165,1.11068 -0.66773,1.82511 -0.36422,1.94719 0.12165,3.56582 1.42448,4.89664 1.28879,1.33082 3.02291,2.22013 5.20824,2.62638 2.26939,0.40624 4.21548,0.1868 5.74242,-0.66772 1.52694,-0.85453 2.42372,-2.20173 2.75992,-4.05086 0.21013,-1.19073 0.12265,-2.217 -0.3116,-3.07153 -0.23814,-0.46228 -0.64156,-0.94818 -1.2019,-1.42447 l 0.93481,0.17806 c 1.40086,0.26616 2.34714,0.57308 2.89347,0.97932 0.82651,0.63039 1.14246,1.62367 0.8903,2.9825 -0.18211,0.95259 -0.47004,1.57794 -0.8903,1.91414 -0.23815,0.21013 -0.60607,0.34212 -1.06836,0.35612 l -0.71224,4.09537 c 1.4849,0.14003 2.65312,-0.31281 3.60571,-1.33545 0.93857,-1.02263 1.57793,-2.46881 1.91414,-4.31794 0.56034,-3.03986 0.13547,-5.24586 -1.33545,-6.63272 -0.84051,-0.79849 -2.24872,-1.38587 -4.13988,-1.73608 l -13.97768,-2.53735 z m -400.94557,0.93482 -19.85364,4.09536 0.75675,3.73926 13.4435,-2.75993 c 0.37822,-0.084 0.9161,-0.20202 1.60253,-0.35612 0.70043,-0.1541 1.22431,-0.28607 1.60254,-0.35612 l -15.89182,7.12239 0.80127,3.96182 17.44984,0.26709 c -0.37823,0.0701 -0.90211,0.17152 -1.60254,0.3116 -0.70043,0.12607 -1.26882,0.22755 -1.64705,0.31161 l -13.4435,2.80444 0.80127,3.73925 19.85364,-4.13989 -1.2019,-5.78693 -16.33696,-0.31161 14.86797,-6.76626 -1.2019,-5.87596 z m 405.75318,4.05085 c 0.55859,-0.0473 1.1692,-0.037 1.86963,0.089 1.4849,0.28017 2.51118,0.78506 3.07152,1.51351 0.57435,0.72844 0.79131,1.53527 0.62321,2.4038 -0.22414,1.3028 -1.02847,2.07912 -2.35929,2.35929 -0.71443,0.1541 -1.50476,0.1541 -2.35929,0 -0.99461,-0.18211 -1.77341,-0.45354 -2.4038,-0.84578 -1.17672,-0.72845 -1.66262,-1.72422 -1.42448,-3.02702 0.16811,-0.96659 0.673,-1.65793 1.51351,-2.0922 0.41325,-0.21713 0.9104,-0.35335 1.46899,-0.40063 z m -7.7901,9.43716 c -0.042,0.1541 -0.10556,0.26958 -0.13348,0.3116 -0.0142,0.042 -0.0305,0.10798 -0.0444,0.17806 -0.28017,1.12069 -0.19769,2.09747 0.22257,2.93798 0.23815,0.51833 0.77603,1.14616 1.60254,1.95866 l -2.62638,-0.62321 -0.8903,3.56119 14.60089,3.60571 0.93481,-3.73926 -6.89981,-1.69156 c -1.16271,-0.29418 -2.00253,-0.63409 -2.49283,-1.06836 -0.85453,-0.75647 -1.09047,-1.92872 -0.71224,-3.42764 0.0281,-0.11211 0.0331,-0.21853 0.089,-0.40064 0.042,-0.1821 0.15253,-0.39907 0.22257,-0.62321 l -3.87279,-0.97932 z m -402.32554,9.34812 c -0.30097,0.0318 -0.61612,0.10456 -0.93482,0.17806 l 1.06836,3.56119 c 0.57435,-0.084 1.06275,-0.0346 1.46899,0.13348 0.54633,0.22414 0.98026,0.77851 1.24642,1.64705 0.23814,0.77047 0.27612,1.40734 0.17806,1.86962 -0.098,0.47629 -0.46599,0.79722 -1.06836,0.97933 -0.47629,0.14003 -0.89869,-0.0415 -1.29093,-0.48966 -0.22414,-0.26617 -0.46257,-0.67704 -0.75675,-1.33545 l -0.5787,-1.20183 c -0.60236,-1.35884 -1.22523,-2.38013 -1.86962,-2.9825 -1.20474,-1.10667 -2.6724,-1.3476 -4.45149,-0.80127 -1.37284,0.40625 -2.30013,1.1306 -2.80444,2.18123 -0.4903,1.06466 -0.5703,2.2419 -0.17806,3.51668 0.29419,1.00861 0.79908,1.83442 1.51351,2.49283 0.58836,0.53233 1.24422,0.95473 1.95865,1.29093 -0.30818,0.12607 -0.57712,0.23004 -0.80126,0.35612 -0.23815,0.11211 -0.5046,0.27954 -0.75676,0.48967 l 1.2019,3.96182 0.5787,-0.17806 c 0.042,-0.26616 0.14102,-0.4551 0.26709,-0.62321 0.14002,-0.1821 0.45852,-0.36607 0.93481,-0.53418 0.64439,-0.21012 1.18477,-0.39409 1.64705,-0.53417 l 6.63272,-2.00317 c 1.73706,-0.51833 2.73034,-1.47612 2.9825,-2.84896 0.25216,-1.38685 0.15068,-2.85201 -0.31161,-4.40697 -0.71443,-2.36745 -1.87269,-3.81861 -3.42764,-4.40697 -0.73546,-0.27318 -1.54543,-0.40682 -2.44832,-0.31161 z m 403.88356,2.04769 c -0.54984,0.0298 -1.08422,0.11296 -1.60254,0.26709 -1.16271,0.3222 -2.1065,0.90957 -2.84895,1.73608 -0.75647,0.84051 -1.34384,1.80826 -1.73608,3.02701 -0.63039,2.03124 -0.47942,3.91383 0.44515,5.60887 0.92457,1.69505 2.60918,2.91027 5.07469,3.69474 2.64762,0.82651 4.75465,0.73903 6.36563,-0.3116 1.625,-1.03664 2.75025,-2.46882 3.33862,-4.31795 0.70043,-2.22737 0.54946,-4.19494 -0.44515,-5.87596 -0.63039,-1.07866 -1.36874,-1.81701 -2.18123,-2.18123 l -1.15739,3.69473 c 0.35021,0.35021 0.61667,0.71815 0.75676,1.06836 0.26616,0.65841 0.26616,1.39923 0,2.22574 -0.25216,0.78448 -0.62506,1.39085 -1.15739,1.82511 -0.86853,0.74246 -2.01526,0.92643 -3.47216,0.53418 l 3.20507,-10.14939 c -1.23276,-0.40625 -2.20704,-0.64469 -2.89347,-0.75675 -0.58836,-0.091 -1.14173,-0.11881 -1.69156,-0.089 z m -409.00277,2.98249 c 0.50299,-0.0355 0.99122,0.14295 1.37996,0.48967 0.30818,0.28016 0.64561,0.77105 1.02384,1.5135 l 0.40063,0.75676 c 0.21013,0.39224 0.36608,0.72468 0.53418,0.93481 0.1541,0.19612 0.35455,0.39659 0.5787,0.57869 l -1.42448,0.40064 c -1.27478,0.36422 -2.22106,0.29575 -2.89347,-0.22258 -0.68643,-0.53232 -1.14182,-1.20468 -1.37996,-2.00317 -0.1541,-0.5043 -0.15161,-0.94569 0.0444,-1.37996 0.18211,-0.43426 0.58801,-0.7832 1.24642,-0.97933 0.17862,-0.0526 0.322,-0.0772 0.48966,-0.089 z m 408.5131,0.71224 c 0.41676,-0.0473 0.88267,0.0145 1.37996,0.13348 l -2.00317,6.32111 c -0.85453,-0.42026 -1.46088,-0.96062 -1.82511,-1.64705 -0.36422,-0.68643 -0.44173,-1.50975 -0.13347,-2.44832 0.26616,-0.86853 0.73805,-1.52439 1.42448,-1.95866 0.34321,-0.21012 0.74062,-0.35335 1.15738,-0.40063 z m -395.73733,6.36563 -5.20824,7.07787 -8.85847,-2.00317 1.64705,4.31794 5.16373,0.80127 -3.33862,4.00634 1.69157,4.45149 5.3863,-7.38947 8.50234,1.86962 -1.60253,-4.27343 -4.89664,-0.71224 3.16056,-3.78376 -1.64705,-4.36246 z m 390.48458,4.58503 c -0.45222,0.0403 -0.90469,0.1 -1.33545,0.22258 -1.72306,0.4903 -2.93579,1.63454 -3.65022,3.42764 -0.40625,1.00862 -0.52422,1.90292 -0.35612,2.71541 0.12607,0.68643 0.41401,1.37777 0.8903,2.0922 l -6.72175,-2.67089 -1.42448,3.56119 18.78529,7.4785 1.37996,-3.51668 -1.7806,-0.71223 c 0.86853,-0.19613 1.5549,-0.41806 2.00317,-0.71224 0.72845,-0.50431 1.33233,-1.31363 1.7806,-2.44832 0.71443,-1.7931 0.56346,-3.50574 -0.44515,-5.0747 -1.02263,-1.56896 -2.61979,-2.78169 -4.7631,-3.65022 -1.56545,-0.61987 -3.00581,-0.83306 -4.36245,-0.71224 z m 0.6232,4.00634 c 0.74246,0.0142 1.64579,0.23097 2.62638,0.62321 1.21876,0.49031 2.08005,1.10165 2.62638,1.91414 0.54633,0.81249 0.64532,1.71583 0.26709,2.62638 -0.42026,1.06465 -1.1116,1.6735 -2.0922,1.86963 -0.98059,0.21012 -2.07287,0.12022 -3.24959,-0.35612 -1.00861,-0.40625 -1.78244,-0.87566 -2.31477,-1.37996 -0.99461,-0.95259 -1.23056,-2.09434 -0.71224,-3.38314 0.51833,-1.28879 1.4481,-1.91414 2.84895,-1.91414 z m -14.42282,7.83462 -1.64705,3.47216 18.29562,8.54686 1.64705,-3.47216 -18.29562,-8.54686 z m -362.88535,3.33862 -17.9395,9.39264 1.91414,3.65022 6.45466,-3.42764 1.91414,3.65022 c 0.99461,1.90516 2.19085,3.13439 3.60571,3.69473 1.40086,0.57435 3.18198,0.30541 5.29727,-0.80127 1.93318,-1.00861 3.09393,-2.27084 3.47216,-3.78376 0.37823,-1.51292 0.1538,-3.11506 -0.75675,-4.85212 l -3.96183,-7.52302 z m -1.15738,5.25276 1.73608,3.2941 c 0.43426,0.82651 0.56873,1.55333 0.40063,2.22574 -0.1541,0.67241 -0.70848,1.30431 -1.64705,1.7806 -0.93857,0.4903 -1.7314,0.59426 -2.4038,0.35612 -0.67241,-0.23815 -1.2573,-0.77603 -1.69157,-1.60254 l -1.69157,-3.2941 5.29728,-2.75992 z m 369.0284,0.71223 c -0.26967,-0.004 -0.53511,0.0165 -0.80127,0.0444 -1.19073,0.1121 -2.23351,0.51547 -3.11604,1.2019 -0.89655,0.67241 -1.66789,1.5502 -2.27026,2.67089 -1.00862,1.89117 -1.18106,3.77375 -0.57869,5.60888 0.58836,1.83512 2.03455,3.36628 4.31794,4.58503 2.43749,1.3028 4.54203,1.57423 6.32111,0.84579 1.77909,-0.72845 3.09579,-1.94118 4.00634,-3.65023 1.10668,-2.07326 1.34014,-4.04084 0.66773,-5.87596 -0.40625,-1.17672 -0.96312,-1.98853 -1.69157,-2.49283 l -1.82511,3.38313 c 0.26616,0.40624 0.46414,0.82367 0.53418,1.2019 0.14003,0.70043 0.006,1.41076 -0.40063,2.18123 -0.39225,0.71443 -0.89714,1.26633 -1.51351,1.60253 -0.9806,0.56035 -2.15784,0.46634 -3.51668,-0.17806 l 5.03019,-9.34812 c -1.1347,-0.63039 -2.01249,-1.05279 -2.6709,-1.29093 -0.84051,-0.29419 -1.68384,-0.47522 -2.49283,-0.48967 z m -0.35612,3.65023 c 0.4255,0.0333 0.91067,0.1835 1.37996,0.40063 l -3.16056,5.83145 c -0.78447,-0.57435 -1.26134,-1.26072 -1.5135,-2.00317 -0.23815,-0.74245 -0.15068,-1.53527 0.3116,-2.4038 0.43427,-0.79849 1.02413,-1.35287 1.7806,-1.64706 0.37822,-0.14002 0.77639,-0.21133 1.2019,-0.17805 z m -359.4577,5.3863 -17.31629,10.41648 2.00317,3.2941 17.27177,-10.41648 -1.95865,-3.2941 z m 345.391,0 -2.04769,3.24958 6.00951,3.82828 c -0.82651,-0.0142 -1.56983,0.1255 -2.27026,0.48967 -0.70043,0.37822 -1.30431,0.93509 -1.78059,1.69156 -1.03664,1.61099 -1.2536,3.32363 -0.62321,5.0747 0.61637,1.75107 2.02707,3.30122 4.1844,4.67406 1.87714,1.19074 3.69872,1.64862 5.51984,1.42448 1.82112,-0.22414 3.18482,-1.06396 4.09537,-2.49283 0.56035,-0.88254 0.86228,-1.73886 0.8903,-2.53735 0.042,-0.79849 -0.16092,-1.6573 -0.62321,-2.58187 l 1.73608,1.11288 1.95866,-3.11605 -17.0492,-10.81711 z m 5.78693,8.992 c 0.92981,6.6e-4 1.99434,0.3329 3.16056,1.06836 1.10667,0.70043 1.87801,1.53777 2.27026,2.44832 0.40624,0.91055 0.30726,1.81886 -0.26709,2.71541 -0.57435,0.91055 -1.33418,1.37996 -2.31478,1.37996 -0.98059,0 -2.07287,-0.41494 -3.24958,-1.15739 -1.07866,-0.68642 -1.85249,-1.46274 -2.31478,-2.35929 -0.44827,-0.89655 -0.36579,-1.83535 0.22258,-2.75992 0.37822,-0.60237 0.9021,-1.03629 1.60253,-1.24642 0.28367,-0.0806 0.58036,-0.0893 0.8903,-0.089 z m -353.7598,1.15739 c -0.79849,0.088 -1.6183,0.39649 -2.44832,0.8903 l 2.04769,3.07153 c 0.53233,-0.25217 1.03472,-0.35363 1.46899,-0.31161 0.60237,0.056 1.12873,0.44543 1.64705,1.2019 0.46229,0.68643 0.72873,1.24578 0.75675,1.73608 0.042,0.47629 -0.19391,0.91022 -0.71223,1.24642 -0.42027,0.29418 -0.86164,0.27769 -1.37997,-0.0444 -0.28016,-0.16811 -0.68109,-0.53603 -1.15738,-1.06836 l -0.8903,-1.02384 c -0.99461,-1.1207 -1.8724,-1.89204 -2.67089,-2.27026 -1.48491,-0.70043 -2.99958,-0.50246 -4.54052,0.53418 -1.19074,0.79849 -1.84907,1.77526 -2.00317,2.93798 -0.1541,1.16271 0.10327,2.32097 0.84578,3.42765 0.58837,0.86853 1.35721,1.50789 2.22575,1.91414 0.74245,0.3502 1.48578,0.55566 2.27025,0.66772 -0.26616,0.21012 -0.51611,0.39659 -0.71223,0.57869 -0.19613,0.19612 -0.35208,0.44608 -0.53418,0.71224 l 2.31477,3.42765 0.48967,-0.31161 c -0.042,-0.26616 -0.0396,-0.50211 0.0444,-0.71224 0.0701,-0.21012 0.30599,-0.49308 0.71224,-0.80126 0.54633,-0.40625 1.01823,-0.69917 1.42447,-0.97933 l 5.78701,-3.91738 c 1.51292,-1.02263 2.18528,-2.23287 2.00317,-3.60571 -0.1821,-1.38685 -0.7365,-2.76455 -1.64705,-4.09537 -1.38686,-2.04525 -2.93201,-3.09301 -4.58503,-3.20507 -0.26266,-0.0175 -0.49059,-0.0293 -0.75676,0 z m 339.02537,3.2941 -2.22574,3.11604 2.89347,2.04769 2.22574,-3.11604 -2.89347,-2.04769 z m 4.36246,3.11604 -2.22574,3.11605 12.19708,8.72491 2.22574,-3.11604 -12.19708,-8.72492 z m -347.92835,0.17806 c 0.31695,-0.0281 0.61262,0.0685 0.93482,0.22258 0.39224,0.1821 0.89464,0.55502 1.46899,1.15739 l 0.62321,0.6232 c 0.3222,0.32221 0.59114,0.52764 0.80126,0.66773 0.22415,0.1541 0.44608,0.33308 0.71224,0.44515 l -1.2019,0.80126 c -1.12069,0.71444 -2.08097,0.9314 -2.89347,0.62321 -0.81249,-0.30818 -1.45185,-0.81307 -1.91414,-1.5135 -0.30818,-0.44827 -0.44265,-0.90368 -0.40063,-1.37997 0.042,-0.47628 0.32995,-0.9127 0.8903,-1.29093 0.31519,-0.21012 0.66238,-0.3281 0.97932,-0.35612 z m 14.42283,4.00634 -11.70742,9.2591 2.35929,2.9825 6.36563,-5.03019 c 0.71443,-0.57434 1.3868,-0.94476 2.00317,-1.11287 1.17672,-0.3222 2.17,0.0152 2.9825,1.02385 0.64439,0.8265 0.80937,1.63333 0.44515,2.4038 -0.21013,0.42026 -0.63005,0.88966 -1.24642,1.37996 l -7.1669,5.65339 2.44832,3.07153 7.87914,-6.23209 c 1.4849,-1.16271 2.27275,-2.38944 2.31477,-3.65022 0.0281,-1.26077 -0.41088,-2.4735 -1.33545,-3.65022 -0.75646,-0.93857 -1.61527,-1.54245 -2.58186,-1.78059 -0.53233,-0.12607 -1.24016,-0.17309 -2.13671,-0.089 l 1.69156,-1.33545 -2.31477,-2.89347 z m 330.79011,2.75993 c -0.86283,0.0355 -1.69185,0.24498 -2.44831,0.6232 -0.99462,0.50431 -1.88642,1.27565 -2.6709,2.27026 -1.34482,1.66703 -1.88519,3.48114 -1.64705,5.38631 0.23815,1.91916 1.35189,3.68628 3.38313,5.29727 2.15733,1.72306 4.16286,2.3649 6.05403,1.95865 1.89116,-0.39224 3.45531,-1.36653 4.67406,-2.89347 1.4709,-1.83512 2.04427,-3.7202 1.73608,-5.65339 -0.19612,-1.23275 -0.61603,-2.17405 -1.24642,-2.80443 l -2.44831,3.07152 c 0.19612,0.44827 0.3116,0.89869 0.3116,1.29093 0.0142,0.71444 -0.25494,1.41979 -0.80127,2.0922 -0.51832,0.64439 -1.07767,1.06679 -1.73608,1.29094 -1.06465,0.37822 -2.22291,0.12578 -3.42765,-0.75676 l 6.67724,-8.3688 c -1.00862,-0.82651 -1.81544,-1.38587 -2.40381,-1.73608 -1.03663,-0.60236 -2.03738,-0.93978 -3.11604,-1.02384 -0.30119,-0.0281 -0.60268,-0.0564 -0.8903,-0.0444 z m 0.0444,3.6057 c 0.59886,0.0269 1.19472,0.23696 1.82511,0.66773 l -4.13989,5.20824 c -0.64439,-0.70043 -1.01481,-1.45528 -1.11287,-2.22575 -0.098,-0.77047 0.1849,-1.5443 0.80127,-2.31477 0.57435,-0.71443 1.24919,-1.13683 2.04768,-1.29093 0.19613,-0.0351 0.37907,-0.0536 0.5787,-0.0444 z m -14.20025,2.75992 -2.80444,2.9825 5.65339,5.29727 -5.34178,5.65339 -5.60888,-5.29727 -2.80444,2.9825 14.73443,13.88864 2.80451,-2.98249 -6.5882,-6.18757 5.34178,-5.65339 6.54369,6.18757 2.80444,-2.9825 -14.73443,-13.88865 z m -307.24174,5.25276 c -1.89117,0.056 -3.76223,0.97835 -5.65339,2.71541 -1.68103,1.54094 -2.6438,3.20658 -2.93799,4.98567 -0.30818,1.76508 0.31716,3.51569 1.91414,5.25275 1.58297,1.72306 3.40207,2.4474 5.47534,2.18123 1.28879,-0.1681 2.40004,-0.63751 3.33861,-1.37996 l -2.67089,-2.84895 c -0.63039,0.47629 -1.25326,0.74523 -1.86963,0.80127 -0.63038,0.0701 -1.22274,-0.23189 -1.82511,-0.8903 -0.85453,-0.92457 -0.97249,-1.96982 -0.35612,-3.16056 0.32221,-0.63039 0.87908,-1.34975 1.69157,-2.0922 0.84051,-0.77047 1.64236,-1.27785 2.31477,-1.55802 1.2888,-0.53233 2.33654,-0.31536 3.20508,0.62321 0.60236,0.67241 0.86633,1.37777 0.71223,2.0922 -0.14002,0.51832 -0.39252,0.99021 -0.75675,1.42448 l 2.67089,2.89346 c 1.42888,-1.59698 2.05173,-3.11164 1.86963,-4.54052 -0.1681,-1.42887 -0.84544,-2.82556 -2.0922,-4.18439 -1.4709,-1.58297 -3.15304,-2.37082 -5.03018,-2.31478 z m 14.11122,4.94115 -13.88865,14.60089 2.75992,2.62637 3.24959,-3.42764 2.27026,-0.13348 -1.82511,7.07787 3.38313,3.16056 2.44832,-10.461 7.61205,-0.48966 -3.42765,-3.24959 -7.34496,0.80127 7.4785,-7.92365 -2.7154,-2.58187 z m 278.97479,11.61839 -3.11605,2.62638 4.7631,10.41648 -9.52619,-6.41014 -3.24959,2.7154 14.15574,8.54686 c 0.098,0.0701 0.18801,0.37198 0.35612,0.8903 0.1821,0.50431 0.2481,0.84671 0.17806,1.11287 -0.0701,0.28017 -0.25152,0.54911 -0.48967,0.80127 -0.22414,0.26616 -0.50708,0.53261 -0.80127,0.75675 l -0.35611,0.26709 1.95865,2.35929 c 0.33621,-0.23814 0.58865,-0.4081 0.75675,-0.53418 0.1541,-0.12606 0.35705,-0.31003 0.62321,-0.53418 1.3028,-1.09267 1.95866,-2.09996 1.95866,-2.98249 0,-0.88254 -0.52388,-2.71813 -1.60254,-5.51985 l -5.6088,-14.51185 z m -262.32623,3.16056 -12.50868,15.89181 3.2941,2.53735 12.46417,-15.89182 -3.24959,-2.53734 z m 249.46142,8.27976 c -0.35721,-0.01 -0.69464,0.0114 -1.02384,0.089 -0.65841,0.1541 -1.24827,0.42305 -1.78059,0.80127 -0.8125,0.56035 -1.44937,1.2187 -1.86963,2.00317 -0.39224,0.75647 -0.5457,1.64579 -0.48966,2.62638 -0.63039,-0.42026 -1.28874,-0.6562 -2.00317,-0.71224 -0.84052,0 -1.74633,0.30443 -2.6709,0.93481 -0.98059,0.68643 -1.58946,1.47676 -1.86962,2.35929 -0.1681,0.50431 -0.2506,1.19565 -0.22258,2.0922 l -1.24641,-1.82511 -3.02701,2.13672 8.54685,12.33062 3.16056,-2.18123 -5.11921,-7.38947 c -0.46229,-0.67241 -0.73123,-1.2433 -0.80127,-1.69157 -0.098,-0.81249 0.30535,-1.55084 1.2019,-2.18122 0.78448,-0.53233 1.50882,-0.58431 2.18123,-0.17806 0.37823,0.23814 0.83114,0.69602 1.33545,1.42447 l 5.0747,7.34496 3.16055,-2.18123 -5.11921,-7.38947 c -0.37823,-0.56035 -0.60017,-1.09823 -0.71224,-1.60254 -0.1681,-0.98059 0.18583,-1.75692 1.06836,-2.35929 0.75647,-0.53232 1.45029,-0.6008 2.13671,-0.22257 0.35021,0.19612 0.70164,0.56156 1.02385,1.02384 l 5.43081,7.83462 3.2941,-2.27026 -5.3863,-7.7901 c -0.54633,-0.79849 -1.01573,-1.37186 -1.37996,-1.73608 -0.54633,-0.54633 -1.1362,-0.91675 -1.78059,-1.11288 -0.38524,-0.10512 -0.75566,-0.16754 -1.11288,-0.17806 z m -247.10213,0.26709 -8.59137,12.28611 3.16056,2.22575 4.62954,-6.67724 c 0.53233,-0.75646 1.10073,-1.34135 1.64706,-1.69156 1.03663,-0.64439 2.0654,-0.59491 3.11604,0.13347 0.85453,0.58837 1.20844,1.2962 1.06835,2.13672 -0.0701,0.47628 -0.33898,1.04717 -0.80126,1.69156 l -5.25276,7.4785 3.20507,2.27026 5.78694,-8.32428 c 1.07865,-1.54094 1.47959,-2.93515 1.15738,-4.13989 -0.30818,-1.20473 -1.08201,-2.21699 -2.31477,-3.07152 -0.96659,-0.68643 -1.94337,-1.03537 -2.93798,-0.97933 -0.54633,0.042 -1.22118,0.22849 -2.04769,0.57869 l 1.24642,-1.78059 -3.07153,-2.13672 z m 14.6454,10.461 c -0.37079,-0.004 -0.71465,0.0114 -1.06836,0.089 -1.42888,0.30819 -2.50464,1.07953 -3.20507,2.27026 -0.60237,0.99461 -0.78634,1.93591 -0.53418,2.80444 0.25216,0.88253 1.0235,1.9418 2.27026,3.16056 1.73706,1.68102 2.69735,2.6933 2.89347,3.07152 0.19612,0.37823 0.17963,0.73465 -0.0444,1.11288 -0.23815,0.37822 -0.60857,0.5762 -1.11288,0.53417 -0.5043,-0.0281 -1.10818,-0.27548 -1.78059,-0.66772 -1.1347,-0.67241 -1.74604,-1.31674 -1.91414,-2.00317 -0.0841,-0.39224 0.0315,-0.92763 0.3116,-1.55802 l -3.2941,-1.95866 c -0.78447,1.3028 -0.98245,2.68051 -0.53418,4.09537 0.43427,1.40086 1.661,2.69608 3.65022,3.8728 1.94719,1.16271 3.61532,1.6181 5.03018,1.37996 1.40086,-0.25216 2.49312,-1.00948 3.24959,-2.27026 0.57435,-0.96659 0.74183,-1.95986 0.48966,-2.9825 -0.26616,-1.02263 -1.00201,-2.06788 -2.13671,-3.16055 -1.72306,-1.61099 -2.66933,-2.60427 -2.89347,-2.9825 -0.22414,-0.36422 -0.22414,-0.72063 0,-1.11287 0.18211,-0.30819 0.48655,-0.49216 0.93482,-0.53418 0.44826,-0.042 1.05214,0.14443 1.78059,0.57869 0.88254,0.53233 1.37093,1.1527 1.46899,1.82511 0.042,0.36423 -0.057,0.78413 -0.26709,1.24642 l 3.2941,1.91414 c 0.79849,-1.66702 0.88346,-3.1297 0.26709,-4.36246 -0.61637,-1.23276 -1.71113,-2.31101 -3.2941,-3.24959 -1.25026,-0.74595 -2.44882,-1.1017 -3.56119,-1.11287 z m 13.57704,2.58187 -1.95865,3.73925 -1.7806,-0.93482 -1.29093,2.44832 1.82511,0.93481 -4.27343,8.19074 c -0.43427,0.84052 -0.53822,1.54835 -0.35612,2.13672 0.26616,0.93857 1.20995,1.79739 2.84895,2.58186 l 1.64705,0.71224 1.33545,-2.58186 c -0.11211,-0.042 -0.24406,-0.0775 -0.35612,-0.13348 -0.12607,-0.056 -0.21354,-0.0916 -0.3116,-0.13347 -0.68643,-0.36422 -1.08735,-0.68017 -1.15739,-0.8903 -0.0701,-0.19612 0.0759,-0.56654 0.35612,-1.11287 l 3.65022,-7.03335 2.0922,1.11287 1.24642,-2.44832 -2.0922,-1.11287 1.95865,-3.73925 -3.38313,-1.73608 z m 198.49188,0.0444 c -1.23574,-0.0143 -2.54272,0.38692 -3.91731,1.15739 -2.21336,1.23275 -3.47558,2.8324 -3.78377,4.8076 -0.30818,1.98923 0.0623,3.90979 1.11287,5.78694 1.07866,1.90516 2.51333,3.26389 4.36246,4.00634 1.83513,0.75647 3.85468,0.52052 6.05403,-0.71224 2.19934,-1.23276 3.46156,-2.8464 3.78376,-4.80761 0.3222,-1.9612 -0.0342,-3.86776 -1.11287,-5.78693 -1.05064,-1.87715 -2.49932,-3.19136 -4.36246,-3.96183 -0.69342,-0.28892 -1.39527,-0.4812 -2.13671,-0.48966 z m -190.70177,2.49283 -1.51351,3.24959 3.47216,1.60254 1.55802,-3.24959 -3.51667,-1.60254 z m 189.85598,1.06836 c 0.47804,-0.035 0.91768,0.0128 1.37996,0.22257 0.92458,0.40625 1.76439,1.27907 2.49284,2.58187 0.72845,1.3168 1.03038,2.46354 0.8903,3.47216 -0.12607,1.00861 -0.66646,1.81296 -1.64705,2.35929 -0.99462,0.54633 -1.9549,0.5843 -2.89347,0.17806 -0.92457,-0.40625 -1.76439,-1.27907 -2.49284,-2.58187 -0.72844,-1.30279 -1.03038,-2.46354 -0.89029,-3.47216 0.12606,-0.99461 0.71097,-1.76844 1.69156,-2.31477 0.4973,-0.28017 0.99095,-0.41012 1.46899,-0.44515 z m -183.40133,3.2941 -1.64705,3.8728 -1.86962,-0.80127 -1.06836,2.58186 1.86963,0.75676 -3.5612,8.50234 c -0.36422,0.85453 -0.44671,1.60688 -0.22257,2.18123 0.33621,0.91055 1.33197,1.67038 3.02701,2.31477 l 1.73608,0.62321 1.15739,-2.67089 c -0.12607,-0.0281 -0.27455,-0.0916 -0.40063,-0.13348 -0.11211,-0.042 -0.19954,-0.0775 -0.31161,-0.13347 -0.72845,-0.29418 -1.11784,-0.51612 -1.2019,-0.71224 -0.084,-0.21012 -0.0155,-0.59704 0.22257,-1.15739 l 3.07153,-7.30044 2.22575,0.93482 1.02384,-2.58187 -2.18123,-0.89029 1.64705,-3.8728 -3.51668,-1.51351 z m 170.53653,0.31161 c -0.93507,-0.0669 -1.90836,0.15042 -2.93798,0.6232 -1.09267,0.51833 -1.897,1.17916 -2.35929,2.04769 -0.25216,0.4903 -0.45261,1.19565 -0.57869,2.0922 l -0.8903,-1.95866 -3.33862,1.55802 6.2766,13.53253 3.47216,-1.55802 -3.42764,-7.38947 c -0.37823,-0.84051 -0.59519,-1.58136 -0.62321,-2.22575 -0.042,-1.21875 0.52885,-2.08005 1.69156,-2.62637 0.93858,-0.43427 1.7454,-0.41279 2.40381,0.13347 0.36422,0.29418 0.70164,0.84359 1.02384,1.55802 l 3.82828,8.27977 3.60571,-1.69157 -4.22892,-9.17006 c -0.78447,-1.70905 -1.80826,-2.69081 -3.02701,-3.02702 -0.30119,-0.0806 -0.57861,-0.15573 -0.8903,-0.17806 z m -179.26144,0.17806 -6.36563,13.53252 3.47216,1.64705 6.36563,-13.53252 -3.47216,-1.64705 z m 14.3783,6.36562 -2.98249,8.45783 c -0.57435,1.59698 -0.8103,2.9062 -0.71224,3.8728 0.1821,1.77908 1.29337,3.02482 3.33861,3.73925 0.70043,0.25216 1.37029,0.37012 1.95866,0.35612 0.60237,0 1.2467,-0.16746 2.00317,-0.48967 0.23814,-0.098 0.4881,-0.23253 0.71224,-0.40063 0.21012,-0.1681 0.30008,-0.28359 0.35612,-0.31161 l -0.71224,2.04769 3.47216,1.2019 4.98567,-14.11122 -3.60571,-1.24641 -2.67089,7.61204 c -0.3222,0.91056 -0.73713,1.61591 -1.15739,2.0922 -0.81249,0.84051 -1.83877,1.01296 -3.07153,0.57869 -0.95259,-0.3362 -1.44346,-0.90957 -1.5135,-1.73608 -0.042,-0.47628 0.062,-1.07113 0.35612,-1.86962 l 2.98249,-8.50234 -3.73925,-1.29094 z m 149.12487,0.089 c -1.01737,-0.042 -2.11037,0.18194 -3.2941,0.62321 -2.36745,0.86853 -3.84912,2.23472 -4.45149,4.13989 -0.61637,1.90516 -0.51988,3.90325 0.22258,5.92048 0.77047,2.04525 1.99969,3.59291 3.69473,4.62954 1.69504,1.02264 3.74511,1.10511 6.09854,0.22258 2.36745,-0.86853 3.83512,-2.24872 4.45149,-4.13989 0.63039,-1.89116 0.5479,-3.86121 -0.22258,-5.92048 -0.74245,-2.01722 -1.94117,-3.57891 -3.65022,-4.62954 -0.85452,-0.52532 -1.83157,-0.80376 -2.84895,-0.84579 z m -132.07566,1.37997 -1.15739,4.05085 -2.0031,-0.57862 -0.71224,2.62638 1.95866,0.57869 -2.53735,8.90298 c -0.25216,0.89655 -0.24967,1.6349 0.0444,2.18123 0.44827,0.86853 1.52902,1.51038 3.2941,1.95865 l 1.7806,0.40063 0.84578,-2.80443 -0.40063,-0.089 c -0.12607,-0.0143 -0.24406,-0.061 -0.35612,-0.089 -0.74245,-0.21013 -1.17887,-0.39659 -1.29093,-0.5787 -0.098,-0.1821 -0.0346,-0.59953 0.13347,-1.2019 l 2.18137,-7.61204 2.27026,0.6232 0.75675,-2.62637 -2.27025,-0.62321 1.11287,-4.05086 -3.65022,-1.06835 z m 107.99311,2.00317 -3.73925,0.89029 1.02384,4.09537 -2.00317,0.48967 0.66772,2.67089 2.00317,-0.48966 2.22575,8.992 c 0.22414,0.91056 0.62506,1.54743 1.15738,1.86963 0.82651,0.53232 2.10772,0.54882 3.8728,0.0444 l 1.73608,-0.53418 -0.71224,-2.84895 -0.35612,0.13347 c -0.12606,0.042 -0.24405,0.061 -0.35612,0.089 -0.77047,0.18211 -1.24237,0.2011 -1.42447,0.089 -0.18211,-0.098 -0.33557,-0.43547 -0.48967,-1.02384 l -1.91414,-7.74559 2.31478,-0.57869 -0.66773,-2.6709 -2.31477,0.5787 -1.02384,-4.05086 z m 23.45934,0 c 0.47629,0.0403 0.90819,0.21649 1.33545,0.48966 0.85453,0.56035 1.55987,1.56764 2.0922,2.9825 0.51832,1.41486 0.63628,2.62511 0.35612,3.6057 -0.28017,0.9806 -0.98303,1.65544 -2.04769,2.04769 -1.05063,0.39224 -1.98042,0.29325 -2.84895,-0.26709 -0.85453,-0.56035 -1.55987,-1.55362 -2.0922,-2.9825 -0.51832,-1.41486 -0.60579,-2.5806 -0.3116,-3.56119 0.28016,-0.96659 0.93851,-1.65544 2.00317,-2.04769 0.52532,-0.19612 1.03722,-0.30735 1.5135,-0.26708 z m -10.23842,0.089 c -0.1681,0.0281 -0.26958,0.0445 -0.3116,0.0445 -0.056,0 -0.10798,0.0305 -0.17806,0.0444 -1.09268,0.3222 -1.8995,0.90709 -2.40381,1.69157 -0.3222,0.4903 -0.65464,1.26911 -0.93481,2.4038 l -0.71224,-2.49283 -3.51667,1.06836 4.27342,14.33379 3.69474,-1.11287 -2.04769,-6.8553 c -0.3362,-1.14869 -0.46818,-2.0265 -0.35611,-2.67089 0.21012,-1.13469 1.09696,-1.91102 2.58186,-2.35929 0.11211,-0.0281 0.26304,-0.0775 0.44515,-0.13347 0.1821,-0.042 0.38506,-0.12208 0.62321,-0.17806 l -1.15739,-3.78377 z m -87.69433,3.47217 c -1.31331,0 -2.22159,0.29143 -2.7154,0.89029 -0.60237,0.54633 -1.00578,1.59409 -1.20191,3.20508 l -0.13347,0.97932 -2.00317,-0.26709 -0.35612,2.75993 2.0922,0.22257 -1.5135,12.01902 3.78376,0.44515 1.51351,-11.97451 2.44832,0.31161 0.3116,-2.71541 -2.44832,-0.3116 c 0.0701,-0.54633 0.15004,-0.99675 0.17806,-1.29094 0.042,-0.28016 0.13205,-0.50211 0.35612,-0.71223 0.22414,-0.21013 0.60856,-0.29262 1.11287,-0.22258 0.50431,0.0841 0.85823,0.10556 1.06836,0.13348 l 0.40063,-3.16056 c -0.3362,-0.056 -0.60514,-0.10555 -0.80126,-0.13347 -0.19613,-0.0281 -0.38507,-0.047 -0.62321,-0.089 -0.52883,-0.0665 -1.03122,-0.089 -1.46899,-0.089 z m 47.98705,0.13347 -4.62955,0.48966 -4.89663,20.922 4.27342,-0.44515 0.8903,-4.27343 7.25593,-0.75675 1.73608,3.96182 4.45149,-0.44515 -9.08104,-19.453 z m -71.13479,1.15739 c -1.19168,0.0657 -2.29598,0.4117 -3.2941,1.06835 -1.61098,1.05064 -2.67524,2.86475 -3.24958,5.3863 -0.60237,2.70366 -0.34496,4.8082 0.84578,6.32112 1.17672,1.52694 2.72438,2.51772 4.62955,2.93798 2.28339,0.51833 4.23447,0.19988 5.83145,-0.93481 1.02263,-0.71443 1.66447,-1.51878 1.95865,-2.35929 l -3.78369,-0.84564 c -0.3222,0.37823 -0.62912,0.66368 -0.97933,0.84578 -0.63039,0.33621 -1.37122,0.4187 -2.22574,0.22258 -0.8125,-0.18211 -1.46835,-0.53354 -1.95866,-1.02385 -0.79849,-0.81249 -1.06743,-1.94274 -0.80127,-3.42764 l 10.37197,2.35929 c 0.30819,-1.26078 0.47814,-2.23756 0.53418,-2.93799 0.084,-1.17671 -0.0528,-2.25497 -0.44515,-3.24958 -0.42026,-1.12069 -1.10662,-2.043 -2.00317,-2.71541 -0.88253,-0.67241 -1.9138,-1.14431 -3.16056,-1.42448 -0.78273,-0.17336 -1.55524,-0.26197 -2.27026,-0.22257 z m 86.715,1.42447 c -0.41872,0.0313 -0.83916,0.094 -1.29093,0.17806 -1.90517,0.36423 -3.28536,1.13806 -4.13988,2.31478 -0.86854,1.17671 -1.18698,2.43894 -0.93482,3.78376 0.22414,1.1487 0.72904,1.95802 1.51351,2.44832 0.77047,0.49031 2.01619,0.79224 3.73925,0.8903 2.39547,0.098 3.79215,0.20202 4.1844,0.35612 0.39224,0.1541 0.62818,0.45603 0.71224,0.89029 0.084,0.44827 -0.0835,0.84921 -0.48967,1.15739 -0.40624,0.30819 -0.94911,0.52764 -1.69156,0.66773 -1.2888,0.23814 -2.23009,0.16717 -2.80444,-0.26709 -0.3222,-0.23815 -0.59114,-0.70756 -0.80127,-1.37997 l -3.78376,0.71224 c 0.29418,1.51292 1.08451,2.68769 2.35929,3.47216 1.26077,0.77047 3.02788,0.92393 5.29727,0.48967 2.22736,-0.42027 3.77751,-1.19408 4.67406,-2.31478 0.88253,-1.12069 1.17046,-2.37138 0.8903,-3.82828 -0.21013,-1.09267 -0.73401,-1.97949 -1.60254,-2.58186 -0.86853,-0.57435 -2.06726,-0.90929 -3.65022,-0.97933 -2.35343,-0.0701 -3.73364,-0.17152 -4.13988,-0.3116 -0.42027,-0.12607 -0.68672,-0.39752 -0.75676,-0.84578 -0.0701,-0.35021 0.0479,-0.68764 0.35612,-1.02385 0.29419,-0.3222 0.86506,-0.55814 1.69157,-0.71224 1.00861,-0.1821 1.75193,-0.0476 2.27026,0.40064 0.28016,0.25216 0.48312,0.57805 0.62321,1.06836 l 3.78376,-0.71224 c -0.51832,-1.77909 -1.39611,-2.89532 -2.67089,-3.42765 -0.96659,-0.38874 -2.08244,-0.53905 -3.33862,-0.44515 z m -85.86921,1.82511 c 0.22239,0.0144 0.42607,0.0775 0.66772,0.13348 0.89655,0.19612 1.60189,0.60202 2.0922,1.24641 0.47629,0.64439 0.64376,1.48422 0.48966,2.49284 l -6.49917,-1.46899 c 0.35021,-0.89656 0.8246,-1.5384 1.46899,-1.95866 0.49381,-0.31519 1.11344,-0.48848 1.7806,-0.44515 z m 68.41945,0.48981 3.33861,7.65656 -5.07469,0.53418 1.73608,-8.19074 z m -36.54672,0.84578 c -2.07478,0.0339 -3.68766,0.73613 -4.85213,2.04769 -1.34482,1.49892 -2.11616,3.318 -2.27026,5.47533 -0.14002,2.18533 0.37882,4.0589 1.51351,5.6979 1.1347,1.625 2.9678,2.56131 5.47533,2.71541 2.50754,0.1681 4.4116,-0.48775 5.74242,-1.95865 1.33082,-1.4709 2.08566,-3.3205 2.22575,-5.51985 0.14002,-2.14331 -0.3343,-4.04489 -1.469,-5.6979 -1.12069,-1.66703 -2.96779,-2.56131 -5.47533,-2.71541 -0.31519,-0.0209 -0.5939,-0.0493 -0.89029,-0.0444 z m 18.5627,0.62321 c -1.14869,-0.0142 -2.1065,0.28793 -2.84895,0.8903 -0.44827,0.36422 -0.94165,1.00856 -1.55802,2.00317 l 0.0444,-2.58187 -3.6057,-0.0444 -0.26709,15.00152 3.82828,0.0444 0.13347,-7.21141 c 0.0143,-1.20474 0.18148,-2.09654 0.48967,-2.67089 0.54633,-1.02264 1.5751,-1.483 3.11604,-1.46899 0.12606,0.0142 0.26304,-0.0143 0.44515,0 0.1821,0 0.42958,0.0165 0.66772,0.0444 l 0.0444,-3.96183 c -0.1821,-0.0142 -0.26958,0.0143 -0.3116,0 -0.056,-0.0142 -0.10798,-0.0444 -0.17806,-0.0444 z m -18.69625,2.67089 c 0.25062,-0.033 0.5211,-0.0209 0.80127,0 1.12069,0.0701 1.9465,0.52544 2.49283,1.37997 0.54633,0.84051 0.76579,2.00375 0.66773,3.51667 -0.098,1.49892 -0.45447,2.65718 -1.11288,3.42765 -0.64439,0.77047 -1.5502,1.15241 -2.67089,1.06835 -1.12069,-0.0701 -1.9465,-0.52543 -2.49283,-1.37996 -0.54633,-0.85453 -0.76579,-2.04827 -0.66773,-3.56119 0.098,-1.49892 0.45447,-2.65717 1.11288,-3.42764 0.49381,-0.57786 1.11775,-0.92469 1.86962,-1.02385 z"
       id="path946"
       style="fill:#bacdea;fill-opacity:1;fill-rule:nonzero;stroke:none" />
    <path
       d="m 404.50056,270.59139 -8.32429,19.85364 4.45149,0.22257 1.60254,-4.09537 7.43399,0.40064 1.11287,4.22891 4.58503,0.26709 -6.05402,-20.61039 -4.80761,-0.26709 z m -34.58807,0.8903 -3.51667,0.48966 0.44515,3.20507 3.51667,-0.44515 -0.44515,-3.24958 z m -5.3863,0.75675 -3.51667,0.44515 0.40063,3.20507 3.51668,-0.48966 -0.40064,-3.16056 z m -9.2591,1.42448 c -0.3362,0.056 -0.64966,0.10555 -0.84578,0.13347 -0.19612,0.0281 -0.42958,0.0916 -0.66772,0.13347 -2.11529,0.42027 -3.34701,1.08109 -3.73925,2.04769 -0.40625,0.70043 -0.41123,1.8892 -0.089,3.47216 l 0.17806,0.93481 -2.0922,0.40064 0.53418,2.7154 2.13671,-0.40063 2.31478,11.84096 3.78376,-0.75675 -2.31477,-11.84096 2.44832,-0.44515 -0.53418,-2.75993 -2.44832,0.48967 c -0.11211,-0.54633 -0.21105,-0.96624 -0.26709,-1.24642 -0.056,-0.29418 -0.0205,-0.5656 0.13347,-0.84578 0.14003,-0.26616 0.47502,-0.45012 0.97933,-0.53418 0.51832,-0.098 0.85823,-0.18054 1.06836,-0.22257 l -0.5787,-3.11605 z m 51.32567,1.69156 2.13671,8.10171 -5.16372,-0.26709 3.02701,-7.83462 z m -20.78845,0.089 c -1.17672,0.0701 -2.10401,0.40997 -2.80444,1.06836 -0.42026,0.39224 -0.92266,1.14459 -1.46899,2.18123 l -0.17806,-2.58187 -3.65022,0.22258 0.8903,14.91249 3.9173,-0.22258 -0.44514,-7.1669 c -0.0701,-1.20473 9.2e-4,-2.11303 0.26709,-2.7154 0.47628,-1.05064 1.50256,-1.59351 3.07152,-1.69157 0.12607,-0.0142 0.29354,-0.0305 0.48967,-0.0444 l 0.66772,0 -0.26709,-3.96183 -0.3116,0 -0.17806,0 z m 51.59275,0.26709 -0.84578,4.09537 -2.04769,-0.40063 -0.57869,2.7154 2.04768,0.40064 -1.82511,9.03652 c -0.1821,0.92457 -0.12763,1.6489 0.22258,2.18123 0.51832,0.82651 1.69555,1.42789 3.51667,1.73608 l 1.82511,0.26709 0.62321,-2.84895 -0.40063,-0.0444 c -0.12607,-0.0281 -0.24406,-0.061 -0.35612,-0.089 -0.78447,-0.15408 -1.25388,-0.32156 -1.37996,-0.48966 -0.11211,-0.18211 -0.12607,-0.55502 0,-1.15739 l 1.60253,-7.7901 2.35929,0.48966 0.5787,-2.71541 -2.35929,-0.48966 0.84578,-4.09537 -3.82828,-0.80127 z m -64.54659,0.93481 -3.82828,0.53418 1.02385,8.0572 c 0.12606,0.93857 0.093,1.6984 -0.089,2.31477 -0.35021,1.1347 -1.16202,1.79055 -2.49284,1.95866 -1.03663,0.14002 -1.77747,-0.14536 -2.22574,-0.84579 -0.25216,-0.40624 -0.43612,-1.02911 -0.53418,-1.86962 l -1.2019,-8.90298 -3.96183,0.48966 1.15739,8.9475 c 0.21013,1.68103 0.56654,2.92675 1.11287,3.73925 0.9666,1.48491 2.56375,2.11929 4.7631,1.82511 0.77047,-0.098 1.41232,-0.29852 1.95865,-0.5787 0.54633,-0.26616 1.11472,-0.70506 1.64705,-1.33544 0.18211,-0.19613 0.31907,-0.41557 0.44515,-0.66773 0.11211,-0.25214 0.19456,-0.38911 0.22257,-0.44515 l 0.26709,2.13672 3.69474,-0.48966 -1.95866,-14.86798 z m 51.23664,0.66773 c -1.33367,-6.6e-4 -2.46907,0.31493 -3.38313,0.93481 -1.21876,0.82651 -1.9406,1.92126 -2.13672,3.2941 -0.1681,1.14871 0.0349,2.09001 0.62321,2.80444 0.58837,0.71444 1.73011,1.38929 3.38313,2.04768 2.31141,0.88255 3.62562,1.50043 3.96183,1.7806 0.3362,0.28018 0.45667,0.63409 0.40063,1.06836 -0.0701,0.44828 -0.35548,0.72219 -0.84578,0.89029 -0.49031,0.1541 -1.14367,0.20111 -1.91414,0.089 -1.33082,-0.1821 -2.20612,-0.56902 -2.62638,-1.15738 -0.23814,-0.32219 -0.37012,-0.8576 -0.35612,-1.55802 l -3.82828,-0.53418 c -0.21012,1.51293 0.14628,2.85764 1.11287,4.00634 0.9806,1.13469 2.64624,1.84502 4.98567,2.18123 2.28339,0.3222 4.02,0.1027 5.25276,-0.66773 1.21875,-0.77047 1.9711,-1.91223 2.18123,-3.38313 0.1681,-1.10667 -0.12636,-2.08345 -0.75676,-2.93798 -0.64439,-0.84051 -1.69215,-1.56237 -3.20507,-2.13672 -2.26939,-0.84051 -3.5976,-1.38088 -3.96182,-1.64705 -0.35021,-0.25214 -0.50119,-0.58957 -0.44515,-1.02384 0.056,-0.36422 0.26147,-0.63564 0.66772,-0.84578 0.40625,-0.21013 1.04561,-0.25963 1.91414,-0.13348 1.03663,0.14003 1.74199,0.48001 2.0922,1.06836 0.19612,0.33621 0.28109,0.74211 0.26709,1.24642 l 3.87279,0.57869 c 0.084,-1.83512 -0.39033,-3.19882 -1.46899,-4.09537 -1.06465,-0.91055 -2.54383,-1.51443 -4.40697,-1.78059 -0.4903,-0.0701 -0.93541,-0.0888 -1.37996,-0.089 z m -89.25235,2.49283 -3.78376,1.11287 1.15738,4.05086 -2.00317,0.53418 0.75676,2.67089 2.00317,-0.57869 2.53735,8.85846 c 0.25216,0.89655 0.65557,1.51692 1.2019,1.82511 0.85453,0.50431 2.19674,0.45482 3.96182,-0.13348 l 1.7806,-0.6232 -0.80127,-2.75993 -0.40063,0.13348 c -0.12607,0.042 -0.24406,0.061 -0.35612,0.089 -0.75647,0.22414 -1.22836,0.29013 -1.42448,0.17806 -0.1821,-0.098 -0.36608,-0.43548 -0.53418,-1.02385 l -2.18123,-7.65656 2.31478,-0.66772 -0.75676,-2.62638 -2.31477,0.66772 -1.15739,-4.05085 z m 111.10916,1.82511 -3.78377,14.55637 3.78377,0.97933 1.82511,-6.94433 c 0.29418,-1.16271 0.6786,-1.97201 1.11287,-2.44832 0.78447,-0.86853 1.90071,-1.10446 3.42765,-0.71223 0.1121,0.0281 0.26304,0.0775 0.44514,0.13347 0.19613,0.056 0.42958,0.10798 0.66773,0.17806 l 0.97933,-3.82828 c -0.16811,-0.056 -0.26959,-0.061 -0.31161,-0.089 -0.042,-0.0143 -0.094,-0.0751 -0.17806,-0.089 -1.13469,-0.29418 -2.15848,-0.22819 -3.02701,0.17806 -0.51832,0.23814 -1.20717,0.75953 -2.04769,1.55802 l 0.66773,-2.53735 -3.56119,-0.93481 z m 14.73442,4.31794 c -1.03313,0.0701 -1.99442,0.38849 -2.84895,0.93482 -1.69504,1.09267 -2.87476,2.68733 -3.56119,4.71857 -0.68643,2.08729 -0.70043,4.04334 0,5.92048 0.71443,1.87717 2.28109,3.23837 4.71858,4.05086 2.43749,0.81251 4.53704,0.67804 6.23208,-0.40063 1.68103,-1.07866 2.86076,-2.64531 3.56119,-4.71858 0.68643,-2.04525 0.65592,-4.01532 -0.0444,-5.92048 -0.68643,-1.89115 -2.23657,-3.23835 -4.67406,-4.05086 -1.21876,-0.40624 -2.35,-0.60422 -3.38313,-0.53418 z m -133.6782,0.31161 -3.65022,1.33545 2.71541,7.65656 c 0.3222,0.89655 0.48717,1.63987 0.44515,2.27025 -0.084,1.17672 -0.75641,2.00006 -2.00317,2.44832 -0.96659,0.35023 -1.72641,0.24625 -2.31478,-0.35612 -0.3362,-0.3362 -0.68514,-0.89307 -0.97932,-1.69156 l -3.02702,-8.45783 -3.82828,1.37996 3.07153,8.45783 c 0.57435,1.61098 1.21371,2.74123 1.91414,3.42765 1.27478,1.26077 2.95692,1.54372 5.03018,0.80126 0.72845,-0.26616 1.31831,-0.58708 1.7806,-0.97932 0.46228,-0.37823 0.89869,-0.94912 1.29093,-1.69157 0.12607,-0.22413 0.21105,-0.49059 0.26709,-0.75675 0.056,-0.28017 0.11951,-0.43363 0.13347,-0.48967 l 0.71224,2.04769 3.51668,-1.29093 -5.0747,-14.11122 z m 134.43496,3.07153 c 0.48329,-0.0543 1.01868,-0.004 1.55802,0.17806 1.07865,0.36422 1.77,1.03657 2.0922,2.00317 0.3222,0.96659 0.25371,2.16282 -0.22258,3.6057 -0.47628,1.42888 -1.11814,2.43866 -1.95865,3.02701 -0.85453,0.58837 -1.84531,0.70634 -2.93798,0.35612 -1.07866,-0.36422 -1.77,-1.06707 -2.0922,-2.04768 -0.32221,-0.9666 -0.26773,-2.16283 0.22257,-3.60571 0.47629,-1.42888 1.16266,-2.45266 2.00317,-3.02701 0.42726,-0.28717 0.85215,-0.43538 1.33545,-0.48966 z m -153.97699,0.13347 -3.56119,1.55802 1.64705,3.82828 -1.91414,0.84578 1.06835,2.53735 1.95866,-0.84578 3.69474,8.41331 c 0.36422,0.85453 0.83611,1.42293 1.42447,1.64705 0.91056,0.37824 2.19177,0.17528 3.8728,-0.62321 l 1.69156,-0.84578 -1.15738,-2.67089 -0.35612,0.17806 c -0.12607,0.0701 -0.24406,0.0916 -0.35612,0.13347 -0.72845,0.3222 -1.16984,0.48469 -1.37996,0.40064 -0.19613,-0.0701 -0.41557,-0.41899 -0.66773,-0.97933 l -3.16055,-7.21141 2.22574,-0.97933 -1.11287,-2.53735 -2.22575,0.97933 -1.69156,-3.82828 z m 167.55403,1.33545 -5.965,13.7551 3.60571,1.55802 3.20507,-7.4785 c 0.36422,-0.85452 0.78413,-1.46586 1.24642,-1.91414 0.89655,-0.84052 1.93932,-1.03849 3.11604,-0.53418 0.95259,0.42026 1.48549,1.05962 1.51351,1.91414 0.0281,0.46228 -0.1369,1.05214 -0.44515,1.78059 l -3.60571,8.41332 3.69474,1.60253 4.00634,-9.30361 c 0.74245,-1.72305 0.84143,-3.13873 0.26709,-4.27343 -0.57435,-1.13469 -1.53713,-1.97949 -2.93799,-2.58186 -1.12069,-0.49029 -2.19396,-0.63878 -3.16055,-0.40064 -0.54633,0.12607 -1.20219,0.47502 -1.95866,0.97933 l 0.8903,-2.00317 -3.47216,-1.5135 z m -176.54604,1.2019 -3.47216,1.69156 1.55802,3.24959 3.51668,-1.69157 -1.60254,-3.24958 z m 2.4038,4.80761 -3.51667,1.73608 6.54369,13.48801 3.51667,-1.73608 -6.54369,-13.48801 z m -10.37196,0.71223 -3.42765,1.86963 2.00317,3.69473 -1.86963,0.97933 1.33545,2.44832 1.82511,-1.02384 4.40698,8.14622 c 0.44826,0.82651 0.95565,1.3314 1.55802,1.51351 0.93857,0.29418 2.2313,-0.0407 3.82828,-0.97933 l 1.60253,-0.93481 -1.37996,-2.58187 c -0.098,0.084 -0.24405,0.15254 -0.35612,0.22258 -0.1121,0.0701 -0.21354,0.12208 -0.3116,0.17806 -0.71443,0.37824 -1.16984,0.5457 -1.37996,0.48966 -0.21013,-0.056 -0.46257,-0.34395 -0.75676,-0.8903 l -3.78376,-7.03335 2.13671,-1.15738 -1.29093,-2.40381 -2.13671,1.15739 -2.00317,-3.69474 z m 203.43302,2.44832 c -0.75457,0.0143 -1.48255,0.15097 -2.18123,0.44515 -1.86314,0.78449 -3.30932,2.14569 -4.31794,4.05086 -1.03663,1.91918 -1.35755,3.85624 -0.97933,5.83145 0.37823,1.9612 1.69244,3.55835 3.96183,4.76309 2.26939,1.21875 4.33844,1.43819 6.18757,0.66772 1.83512,-0.77047 3.28131,-2.11767 4.31794,-4.05085 1.02263,-1.89115 1.34355,-3.81173 0.97933,-5.78694 -0.37823,-1.98921 -1.69244,-3.60287 -3.96183,-4.80761 -1.41836,-0.76171 -2.74871,-1.13572 -4.00634,-1.11287 z m 0.97933,3.51668 c 0.49031,0.0315 1.00219,0.16498 1.51351,0.44515 1.02263,0.54634 1.61249,1.33667 1.78059,2.35929 0.1541,1.00861 -0.13133,2.14134 -0.84578,3.47216 -0.71443,1.33081 -1.55426,2.19211 -2.49283,2.62638 -0.93858,0.42026 -1.87084,0.36828 -2.89347,-0.17806 -1.02263,-0.54633 -1.6265,-1.33666 -1.7806,-2.35929 -0.1681,-1.00862 0.0869,-2.18586 0.80127,-3.51668 0.71443,-1.33082 1.55426,-2.1616 2.49284,-2.58186 0.46929,-0.21013 0.93417,-0.2986 1.42447,-0.26709 z m -211.44571,3.42764 c -1.38685,0 -2.86852,0.4884 -4.45148,1.469 -1.66703,1.03663 -2.7238,2.27987 -3.11605,3.69473 -0.39224,1.41488 -0.19427,2.71008 0.53418,3.8728 0.61637,0.99461 1.35971,1.56797 2.27026,1.73608 0.92457,0.18212 2.21978,-10e-4 3.8728,-0.53418 2.29741,-0.77047 3.6611,-1.17139 4.09537,-1.15739 0.42026,0 0.75518,0.20047 0.97932,0.57869 0.25216,0.39225 0.22165,0.81216 -0.0444,1.24642 -0.26616,0.43427 -0.67704,0.84017 -1.33545,1.24642 -1.10667,0.68642 -2.02898,0.93887 -2.7154,0.75675 -0.39225,-0.098 -0.79815,-0.43298 -1.24642,-0.97933 l -3.33869,2.0922 c 0.81249,1.31682 1.95675,2.06263 3.42765,2.31478 1.4709,0.25216 3.21901,-0.23624 5.20824,-1.46899 1.94719,-1.21874 3.12692,-2.54447 3.56119,-3.91731 0.43427,-1.37284 0.25029,-2.65654 -0.53418,-3.91731 -0.60237,-0.95258 -1.39768,-1.58697 -2.44832,-1.82511 -1.03663,-0.22413 -2.32936,-0.0591 -3.82828,0.44514 -2.24137,0.7985 -3.57207,1.1879 -4.00634,1.20191 -0.43426,0.042 -0.74118,-0.1114 -0.97933,-0.48967 -0.1821,-0.30818 -0.19861,-0.64809 -0.0444,-1.06835 0.1681,-0.40625 0.62102,-0.85667 1.33545,-1.29094 0.86853,-0.54633 1.59535,-0.71379 2.22574,-0.48966 0.35021,0.12607 0.67114,0.40904 0.97933,0.80127 l 3.33862,-2.0922 c -1.10668,-1.45688 -2.3384,-2.21173 -3.73925,-2.22575 z m 224.80018,0.31161 -8.41332,12.37514 3.24959,2.22574 5.0747,-7.52301 c 0.46228,-0.67241 0.88468,-1.11131 1.29093,-1.33545 0.72845,-0.39223 1.56826,-0.28827 2.49283,0.35612 0.8125,0.54634 1.16393,1.20468 1.02385,2.00317 -0.0701,0.43426 -0.35548,1.03814 -0.84579,1.78059 l -5.07469,7.43399 3.24958,2.18123 5.0747,-7.43399 c 0.37823,-0.56034 0.79815,-0.98025 1.24642,-1.24641 0.85453,-0.51831 1.76034,-0.48283 2.67089,0.13347 0.78447,0.54634 1.1219,1.17418 1.02384,1.95865 -0.056,0.40625 -0.25649,0.85916 -0.57869,1.33545 l -5.43082,7.96817 3.38313,2.27025 5.34179,-7.83462 c 0.54633,-0.81249 0.90275,-1.45185 1.11287,-1.91414 0.30819,-0.71443 0.45667,-1.41979 0.40064,-2.09219 -0.0841,-0.82651 -0.32,-1.47334 -0.71224,-2.04769 -0.39225,-0.57435 -0.87815,-1.09075 -1.42448,-1.46899 -0.84051,-0.56035 -1.71582,-0.89776 -2.62638,-1.02384 -0.85453,-0.098 -1.76034,0.0694 -2.67089,0.48966 0.1541,-0.75645 0.16561,-1.4808 -0.0444,-2.18123 -0.30819,-0.79849 -0.96155,-1.53682 -1.91414,-2.18123 -1.00862,-0.68641 -1.9854,-0.97683 -2.93799,-0.93481 -0.54633,0.0142 -1.22117,0.18397 -2.04768,0.53418 l 1.2019,-1.73608 -3.11604,-2.0922 z m -238.68882,8.81395 c -1.26078,-0.0701 -2.50649,0.33586 -3.73925,1.24641 -0.9806,0.72845 -1.58946,1.58478 -1.86963,2.53735 -0.1681,0.53233 -0.18958,1.24016 -0.13347,2.13672 l -1.29093,-1.73608 -3.07153,2.31477 8.90298,12.01902 3.16056,-2.35929 -4.85213,-6.54369 c -0.56034,-0.74245 -0.91425,-1.4173 -1.06835,-2.04768 -0.28017,-1.19072 0.12079,-2.21203 1.15738,-2.9825 0.85453,-0.63039 1.64734,-0.74835 2.40381,-0.35612 0.42026,0.22414 0.87316,0.64654 1.33544,1.29093 l 5.47533,7.34496 3.20508,-2.35929 -6.05403,-8.14622 c -1.12069,-1.51293 -2.30041,-2.28925 -3.56119,-2.35929 z m 263.48361,2.18123 -2.27026,2.80443 3.07153,2.49284 2.27026,-2.84896 -3.07153,-2.44831 z m -280.4883,3.24958 -3.20507,2.71541 12.99835,15.44667 3.20507,-2.6709 -12.99835,-15.49118 z m 277.06065,0.93481 -9.34812,11.6629 3.07152,2.49284 9.39264,-11.6629 -3.11604,-2.49284 z m 6.23209,7.25593 c -1.94719,0.098 -3.78279,1.10784 -5.51985,3.02701 -1.84913,2.04527 -2.57844,4.03181 -2.27026,5.965 0.29418,1.91918 1.18599,3.56582 2.67089,4.89664 1.77909,1.61098 3.63367,2.31883 5.60888,2.13671 1.24676,-0.098 2.23506,-0.43548 2.89347,-1.02384 l -2.93798,-2.6709 c -0.47629,0.16811 -0.94321,0.2366 -1.33545,0.22258 -0.71443,-0.042 -1.37528,-0.33245 -2.04769,-0.93481 -0.63038,-0.56035 -1.05029,-1.19722 -1.24641,-1.86963 -0.3222,-1.12068 -0.0178,-2.23442 0.93481,-3.38313 l 8.14622,7.30044 c 0.86854,-0.95257 1.47739,-1.72641 1.86963,-2.31477 0.64439,-0.9806 1.06182,-2.00688 1.2019,-3.07153 0.1681,-1.20474 0.0171,-2.33248 -0.44515,-3.38313 -0.46228,-1.03664 -1.17012,-1.98042 -2.13671,-2.84895 -1.625,-1.45689 -3.43912,-2.15975 -5.3863,-2.04769 z m 0.89029,3.47216 c 0.79849,-0.042 1.55831,0.30692 2.31478,0.97933 0.68643,0.61638 1.08984,1.32422 1.2019,2.13671 0.11211,0.81251 -0.1849,1.60532 -0.80127,2.40381 l -5.03018,-4.54052 c 0.74245,-0.60237 1.5303,-0.93729 2.31477,-0.97933 z m -283.11467,1.24642 -5.60888,5.16373 2.49284,2.7154 5.60887,-5.16372 -2.49283,-2.71541 z m -10.50551,2.53735 -3.38313,3.47216 0.66772,7.43398 -7.83462,-7.56753 -2.67089,2.75993 14.46733,14.02219 2.6709,-2.75993 -3.38313,-3.2941 -0.089,-2.35929 7.12238,1.86963 3.2941,-3.38313 -10.55003,-2.49284 -0.3116,-7.70107 z m 315.74408,5.16372 -15.31312,13.22093 2.71541,3.16055 6.85529,-5.87596 5.11921,5.92048 -6.85529,5.92048 2.75992,3.16055 15.31313,-13.1764 -2.71541,-3.20507 -5.87597,5.03018 -5.11921,-5.92048 5.87597,-5.03018 -2.75993,-3.20508 z m -130.02798,5.87597 c 0,7.22843 0.089,92.22177 0.089,114.04714 l 80.08228,0.17806 -0.17806,-10.68358 c -0.64439,-10.99673 -4.10429,-29.04773 -8.01268,-37.97119 -3.30602,-7.57865 -7.40955,-15.43805 -12.50868,-23.05871 -7.56464,-11.29092 -22.73936,-24.43851 -32.62941,-30.44819 -8.68532,-5.19717 -16.33604,-9.27582 -26.84248,-12.06353 z m -67.48457,0.089 c -10.50643,2.78771 -18.08213,6.77733 -26.75344,11.9745 -9.89006,6.00968 -25.02026,19.15727 -32.5849,30.44819 -5.09913,7.62066 -9.23317,15.49407 -12.5532,23.05871 -3.90839,8.93747 -7.36829,26.97446 -8.01268,37.97119 l -0.17806,10.68358 80.1268,-0.17806 c 0,-21.82537 -0.0444,-106.72968 -0.0444,-113.95811 z m -129.8054,3.42765 c -0.37648,-0.003 -0.75916,0.0835 -1.11287,0.17805 -1.40086,0.39225 -2.71258,1.27253 -3.91731,2.71541 -1.40086,1.69504 -1.95524,3.50916 -1.64706,5.3863 0.29419,1.87715 1.45244,3.61376 3.42765,5.25276 1.75107,1.4569 3.53468,2.18372 5.34179,2.22574 1.82112,0.0281 3.50324,-0.86628 5.03018,-2.7154 1.54094,-1.84913 2.04583,-3.80021 1.51351,-5.83145 -0.32221,-1.26078 -0.92607,-2.28954 -1.7806,-3.11605 l -2.58186,3.07153 c 0.54633,0.56035 0.92827,1.16423 1.06835,1.7806 0.14003,0.61637 -0.0934,1.25822 -0.66772,1.95865 -0.82651,0.9806 -1.85527,1.24954 -3.11604,0.80127 -0.67241,-0.22414 -1.47426,-0.67953 -2.31478,-1.37996 -0.88253,-0.74245 -1.49139,-1.4173 -1.86962,-2.04769 -0.70043,-1.21874 -0.61794,-2.31598 0.22257,-3.33861 0.58837,-0.71443 1.26072,-1.06587 2.00317,-1.02384 0.54633,0.056 1.03722,0.23999 1.51351,0.53417 l 2.58186,-3.07152 c -1.33432,-0.89305 -2.56529,-1.36945 -3.69473,-1.37996 z m 335.41966,12.01901 c -1.69786,-0.0705 -3.45864,0.59034 -5.29727,1.91414 -2.24137,1.61099 -3.44913,3.35009 -3.56119,5.29728 -0.11211,1.94718 0.40932,3.7308 1.55802,5.34178 1.40086,1.94719 3.11349,3.05596 5.0747,3.2941 1.23275,0.16811 2.24254,0.0336 3.02701,-0.40063 l -2.31477,-3.20507 c -0.51833,0.084 -0.94321,0.0536 -1.33545,-0.0444 -0.71443,-0.1821 -1.3513,-0.60699 -1.86963,-1.33544 -0.4903,-0.68643 -0.75924,-1.37777 -0.80126,-2.0922 -0.0841,-1.16272 0.48683,-2.22199 1.69156,-3.16056 l 6.36563,8.85846 c 1.06465,-0.74245 1.81047,-1.34882 2.31477,-1.82511 0.84052,-0.84051 1.47491,-1.7818 1.82511,-2.80443 0.43427,-1.1347 0.53575,-2.27646 0.31161,-3.38314 -0.23815,-1.12069 -0.72654,-2.19895 -1.46899,-3.24958 -1.27478,-1.77909 -2.87442,-2.80786 -4.80761,-3.11604 -0.2399,-0.0385 -0.46969,-0.0789 -0.71224,-0.089 z m -346.81547,1.33545 c -0.15442,0.0128 -0.29105,0.0487 -0.44515,0.089 -1.21876,0.33621 -2.27803,1.11253 -3.16056,2.35929 -0.70043,1.00861 -1.00735,2.0184 -0.97933,3.02701 0.0281,0.56035 0.18397,1.28219 0.53418,2.13672 l -1.78059,-1.29094 -2.18123,3.11605 12.24159,8.59137 2.22574,-3.20507 -6.63271,-4.67407 c -0.75647,-0.53232 -1.29685,-1.0562 -1.64705,-1.60253 -0.64439,-1.03664 -0.60891,-2.06541 0.13347,-3.11604 0.60237,-0.86853 1.34072,-1.25296 2.18123,-1.11288 0.46228,0.0701 1.00266,0.353 1.64705,0.80127 l 7.4785,5.20824 2.31477,-3.33861 -8.23525,-5.78694 c -1.15571,-0.80899 -2.22666,-1.18482 -3.20507,-1.2019 -0.16308,-0.003 -0.33525,-0.0128 -0.48966,0 z m 346.99353,2.27026 c 0.20138,-0.004 0.42709,0.0128 0.62321,0.0444 0.78447,0.12607 1.45932,0.59797 2.04768,1.42448 0.54633,0.75647 0.76828,1.53278 0.71224,2.35929 -0.0701,0.82651 -0.49244,1.56734 -1.29093,2.22574 l -3.96182,-5.51984 c 0.65139,-0.32571 1.2655,-0.51974 1.86962,-0.53418 z m 15.35764,5.51985 -3.02702,1.91414 2.0922,3.2941 3.02702,-1.91414 -2.0922,-3.2941 z m -4.49601,2.84895 -12.64222,8.01268 2.04768,3.2941 12.64223,-8.01268 -2.04769,-3.2941 z m -184.46968,1.46899 c -16.41738,0.83215 -29.46886,14.44715 -29.46886,31.07139 0,17.16051 13.91088,31.07139 31.07139,31.07139 17.16051,0 31.07139,-13.91088 31.07139,-31.07139 0,-17.16051 -13.91088,-31.07139 -31.07139,-31.07139 -0.53627,0 -1.07294,-0.0268 -1.60253,0 z m -183.0007,2.71541 c -0.5002,0.0521 -0.97796,0.23999 -1.42448,0.53418 -1.20473,0.77047 -2.2005,1.83472 -3.02701,3.24958 -1.27478,2.15733 -1.62621,4.00941 -1.02384,5.56436 0.39224,0.9806 1.11658,1.85342 2.18123,2.58187 l 1.91414,-3.24959 c -0.43427,-0.36422 -0.75022,-0.75114 -0.8903,-1.15739 -0.19612,-0.56034 -0.0617,-1.24919 0.40064,-2.04768 0.42026,-0.71443 0.82615,-1.17232 1.24641,-1.42448 0.42027,-0.23814 0.93667,-0.21915 1.46899,0.089 0.43427,0.26617 0.60422,0.68857 0.53418,1.29093 -0.042,0.33621 -0.19548,0.8411 -0.48966,1.51351 l -0.53418,1.2019 c -0.58837,1.40086 -0.8903,2.57561 -0.8903,3.47216 0,1.63901 0.80683,2.93422 2.40381,3.8728 1.24675,0.71443 2.44049,0.8984 3.56119,0.53418 1.12069,-0.36423 1.98446,-1.10755 2.67089,-2.27026 0.53233,-0.91056 0.80127,-1.86836 0.80127,-2.84896 0,-0.81249 -0.13205,-1.58881 -0.35612,-2.35928 0.29418,0.1541 0.59362,0.25805 0.84578,0.35612 0.23815,0.084 0.52358,0.16653 0.84578,0.22257 l 2.13672,-3.69474 -0.44515,-0.26709 c -0.23814,0.1541 -0.4881,0.20858 -0.71224,0.22258 -0.23814,0.0281 -0.56155,-0.0735 -1.02384,-0.31161 -0.60237,-0.3362 -1.09324,-0.59362 -1.51351,-0.84578 l -5.96499,-3.51667 c -0.97185,-0.5691 -1.88173,-0.79911 -2.71541,-0.71224 z m 369.47355,4.67406 c -1.46433,0.0519 -3.03755,0.54442 -4.71857,1.46899 -1.94719,1.07866 -3.2449,2.49185 -3.91731,4.22892 -0.65841,1.73706 -0.57343,3.36969 0.26708,4.89663 0.51833,0.93858 1.09417,1.61342 1.7806,2.04769 0.70043,0.43426 1.58974,0.6562 2.62638,0.71224 l -1.7806,0.97932 1.82511,3.29411 17.71693,-9.70425 -1.91414,-3.47216 -6.18757,3.47216 c 0.39224,-0.72845 0.56469,-1.51628 0.57869,-2.31477 0,-0.8125 -0.17494,-1.61933 -0.62321,-2.40381 -0.93857,-1.73706 -2.37978,-2.74932 -4.22891,-3.07152 -0.46229,-0.0806 -0.93637,-0.15084 -1.42448,-0.13348 z m -365.82333,1.15739 1.29093,0.75675 c 1.1347,0.68643 1.75507,1.44624 1.82511,2.31478 0.084,0.86853 -0.11395,1.68937 -0.53417,2.4038 -0.26617,0.46228 -0.62009,0.76671 -1.06836,0.93481 -0.44827,0.1681 -0.96966,0.0832 -1.55802,-0.26709 -0.65841,-0.39224 -1.00984,-0.94662 -1.02385,-1.64705 0,-0.40624 0.15097,-0.9821 0.44515,-1.78059 l 0.31161,-0.84579 c 0.1541,-0.42026 0.22506,-0.80219 0.26709,-1.06835 0.042,-0.26617 0.0585,-0.50709 0.0444,-0.80127 z m 365.77882,2.89347 c 0.26266,-0.0313 0.5011,-0.01 0.75675,0 1.02263,0.056 1.81296,0.5494 2.35929,1.55802 0.36422,0.64439 0.4962,1.36375 0.35612,2.0922 -0.25216,1.19073 -1.22395,2.21949 -2.84895,3.11604 -1.16272,0.63039 -2.24098,0.89933 -3.24959,0.80127 -1.00861,-0.098 -1.78245,-0.62194 -2.31477,-1.60254 -0.53233,-0.96659 -0.56532,-1.89139 -0.089,-2.75992 0.46228,-0.88254 1.31859,-1.67286 2.53734,-2.35929 0.85103,-0.46229 1.70486,-0.75188 2.49284,-0.84578 z m -383.3622,2.18122 -1.78059,3.47217 17.98401,9.21458 1.7806,-3.47216 -17.98402,-9.21459 z m -1.46899,9.2591 c -0.6161,0.0355 -1.20025,0.19299 -1.73608,0.44515 -1.42888,0.68643 -2.54013,1.90413 -3.33862,3.73925 l -3.42764,7.96817 18.60722,8.01267 1.69157,-3.87279 -6.72175,-2.84895 1.64705,-3.8728 c 0.86853,-2.00323 1.05747,-3.73734 0.62321,-5.20824 -0.44827,-1.4849 -1.73198,-2.71165 -3.91731,-3.65022 -1.26078,-0.54284 -2.40082,-0.77134 -3.42765,-0.71224 z m 392.84387,0.26709 c -1.26707,-0.0172 -2.66899,0.31393 -4.13989,0.97933 -2.52155,1.13469 -3.99169,2.60484 -4.496,4.496 -0.4903,1.87715 -0.36734,3.74324 0.44515,5.56436 0.99461,2.18533 2.4548,3.61255 4.31794,4.22892 1.17672,0.42026 2.1865,0.48873 3.02702,0.22257 l -1.60254,-3.6057 c -0.49031,-0.0281 -0.91021,-0.12949 -1.24642,-0.31161 -0.64439,-0.3222 -1.14928,-0.90957 -1.5135,-1.73608 -0.35021,-0.77047 -0.4987,-1.51131 -0.40064,-2.22574 0.14003,-1.1487 0.89493,-2.043 2.22575,-2.71541 l 4.45149,9.92682 c 1.19073,-0.50431 2.09654,-0.95722 2.67089,-1.33545 0.99461,-0.64439 1.75443,-1.3902 2.31477,-2.31477 0.63039,-1.03664 0.97933,-2.10089 0.97933,-3.24959 0,-1.13469 -0.26894,-2.32594 -0.80127,-3.51668 -0.89655,-1.98922 -2.27425,-3.31991 -4.09537,-4.00634 -0.68292,-0.25216 -1.37647,-0.39029 -2.13671,-0.40063 z m 0.3116,3.69474 c 0.41501,0.007 0.83067,0.0825 1.2019,0.22257 0.72845,0.28017 1.31582,0.90054 1.73608,1.82511 0.37823,0.85453 0.4327,1.66385 0.22258,2.44832 -0.22414,0.78447 -0.7505,1.43785 -1.64705,1.91414 l -2.80444,-6.23208 c 0.46229,-0.12607 0.87593,-0.18507 1.29093,-0.17806 z m -392.71032,0.26709 c 0.3975,0.0281 0.80763,0.14599 1.29093,0.35611 0.9806,0.42027 1.58697,0.97465 1.82511,1.64706 0.23815,0.68642 0.15565,1.47675 -0.22257,2.35928 l -1.46899,3.42765 -5.51985,-2.35929 1.51351,-3.47216 c 0.37822,-0.88253 0.89713,-1.42789 1.5135,-1.73608 0.30819,-0.1541 0.67086,-0.25059 1.06836,-0.22257 z m 407.17766,8.27976 -18.87431,7.21142 1.37996,3.6057 18.87431,-7.1669 -1.37996,-3.65022 z m -407.75635,7.56753 -2.53735,7.21142 3.51667,1.2019 2.53735,-7.1669 -3.51667,-1.24642 z m 410.91691,0.75676 -19.27495,6.00951 1.15739,3.69473 1.78059,-0.53418 c -0.54633,0.71444 -0.88376,1.30679 -1.02384,1.82511 -0.26616,0.86854 -0.20017,1.89481 0.17806,3.07153 0.57435,1.87715 1.72357,3.10637 3.51668,3.69474 1.7931,0.60237 3.82665,0.56688 6.05402,-0.13348 2.14331,-0.6584 3.69595,-1.76468 4.71858,-3.24958 1.03663,-1.49892 1.28659,-3.15304 0.71224,-5.03019 -0.33621,-1.03663 -0.8246,-1.87147 -1.46899,-2.4038 -0.53233,-0.46228 -1.19068,-0.80219 -2.00317,-1.06836 l 6.81077,-2.13671 -1.15738,-3.73925 z m -419.19668,6.81078 -1.24642,4.58503 3.47216,3.47216 -4.80761,1.2019 -1.29093,4.58503 8.41332,-2.7154 5.92048,6.98883 1.24641,-4.496 -3.6057,-3.78376 5.03018,-1.24642 1.33545,-4.67406 -8.76944,2.80443 -5.6979,-6.72174 z m 410.69433,0.26708 c 1.40086,0.12607 2.29515,0.86691 2.71541,2.22575 0.42027,1.33082 0.0688,2.45608 -1.02384,3.33862 -0.58837,0.47628 -1.39519,0.87969 -2.4038,1.2019 -1.27478,0.39224 -2.38603,0.42772 -3.33862,0.13347 -0.93857,-0.29418 -1.56144,-0.90303 -1.86963,-1.86962 -0.3362,-1.10668 -0.18523,-2.06448 0.44515,-2.84896 0.64439,-0.79849 1.57168,-1.40237 2.80444,-1.78059 1.03663,-0.3222 1.94245,-0.45668 2.67089,-0.40064 z m 3.78377,12.41966 c -0.8255,-0.0128 -1.72006,0.0963 -2.67089,0.3116 -2.70366,0.60237 -4.48726,1.76561 -5.34179,3.51668 -0.86853,1.75106 -1.10199,3.61717 -0.66772,5.56436 0.53232,2.35343 1.66007,4.03557 3.38313,5.03018 1.07865,0.63039 2.05545,0.89933 2.93798,0.80127 l -0.84578,-3.8728 c -0.49031,-0.12606 -0.8797,-0.34055 -1.2019,-0.57869 -0.57435,-0.44827 -0.96127,-1.09012 -1.15739,-1.95865 -0.18211,-0.82651 -0.17963,-1.59785 0.0444,-2.27026 0.37823,-1.09268 1.30303,-1.8335 2.75992,-2.22575 l 2.40381,10.63906 c 1.27478,-0.26616 2.23506,-0.50459 2.89347,-0.75675 1.10667,-0.43427 2.01747,-1.04064 2.75992,-1.82511 0.84051,-0.88254 1.33388,-1.90632 1.55802,-3.02702 0.22414,-1.12069 0.23565,-2.33092 -0.0444,-3.6057 -0.47629,-2.12931 -1.55206,-3.69595 -3.20508,-4.71858 -1.03313,-0.64789 -2.22988,-1.00319 -3.6057,-1.02384 z m -0.17806,3.78376 c 0.98059,-0.0701 1.77591,0.11396 2.44832,0.53418 0.67241,0.42026 1.1113,1.1421 1.33544,2.13672 0.21013,0.91055 0.11111,1.76438 -0.26708,2.49283 -0.37823,0.74245 -1.05308,1.21932 -2.04769,1.51351 l -1.46899,-6.67724 z m -415.76903,1.33545 c -0.30474,-0.0151 -0.57582,0.007 -0.84579,0.0444 -0.89988,0.12379 -1.59387,0.54599 -2.13671,1.24642 -0.88254,1.10668 -1.50291,2.48439 -1.82511,4.09537 -0.49031,2.45149 -0.17436,4.30358 0.8903,5.56436 0.70043,0.79849 1.6772,1.35536 2.93798,1.69157 l 0.71224,-3.65022 c -0.56035,-0.21013 -0.96625,-0.50958 -1.24642,-0.84579 -0.37823,-0.46228 -0.44919,-1.15113 -0.26709,-2.04768 0.1541,-0.8125 0.39004,-1.41637 0.71224,-1.7806 0.30818,-0.36422 0.77759,-0.4822 1.37996,-0.35612 0.50431,0.098 0.80873,0.46599 0.93481,1.06836 0.0701,0.33621 0.10057,0.82957 0.0445,1.55802 l -0.089,1.33545 c -0.11211,1.51292 -0.0271,2.70666 0.26709,3.56119 0.54633,1.55496 1.69555,2.52924 3.51667,2.89347 1.40086,0.28016 2.5781,0.0467 3.51668,-0.66773 0.93857,-0.71443 1.55894,-1.71021 1.82511,-3.02701 0.21012,-1.05064 0.1302,-2.02743 -0.17806,-2.93798 -0.26616,-0.77047 -0.59207,-1.49233 -1.06836,-2.13672 0.33621,0.042 0.62414,0.089 0.8903,0.089 0.26616,0.0143 0.52358,-0.033 0.84578,-0.089 l 0.84578,-4.13988 -0.57869,-0.13347 c -0.1681,0.22414 -0.33806,0.3916 -0.53418,0.48966 -0.21012,0.084 -0.56405,0.084 -1.06835,0 -0.67241,-0.11211 -1.22929,-0.21354 -1.69157,-0.3116 l -6.81078,-1.37997 c -0.3362,-0.0657 -0.67459,-0.11837 -0.97933,-0.13347 z m 3.56119,4.62955 1.46899,0.3116 c 1.3028,0.29418 2.09811,0.80405 2.44832,1.60254 0.3502,0.79849 0.4797,1.62181 0.3116,2.44832 -0.098,0.53232 -0.33401,0.93823 -0.71224,1.24641 -0.36422,0.30819 -0.88561,0.40718 -1.55802,0.26709 -0.74245,-0.14002 -1.23085,-0.574 -1.46899,-1.24641 -0.14003,-0.40625 -0.19206,-1.04312 -0.17806,-1.86963 l 0,-0.8903 c 0.0143,-0.44827 -0.047,-0.80219 -0.089,-1.06835 -0.056,-0.26617 -0.11054,-0.52111 -0.22257,-0.80127 z m 420.79921,6.23208 -14.77894,2.35929 0.62321,3.8728 7.07787,-1.11288 c 1.19073,-0.19612 2.09903,-0.21012 2.7154,0 1.10668,0.37823 1.75101,1.33851 2.00317,2.89347 0.0143,0.11211 0.0305,0.29354 0.0444,0.48966 0.0281,0.19613 0.0751,0.41557 0.089,0.66773 l 3.87279,-0.62321 c -0.0142,-0.1681 0,-0.30008 0,-0.35612 0,-0.056 0.0143,-0.10797 0,-0.17806 -0.1821,-1.16271 -0.66553,-2.0405 -1.37996,-2.67089 -0.43427,-0.39225 -1.14709,-0.84267 -2.22574,-1.29093 l 2.53734,-0.35612 -0.57869,-3.69474 z m -436.11233,4.80761 -0.62321,6.05402 15.44666,5.25276 -16.20342,2.04769 -0.6232,6.09853 20.16524,2.04769 0.40063,-3.91731 -13.66607,-1.37996 c -0.39224,-0.042 -0.93262,-0.0775 -1.64705,-0.13348 -0.70043,-0.0701 -1.2548,-0.13603 -1.64705,-0.17806 l 17.31629,-2.04775 0.44515,-4.09537 -16.51502,-5.56436 c 0.37823,0.042 0.90211,0.15253 1.60253,0.22257 0.71444,0.0841 1.25481,0.13604 1.64706,0.17806 l 13.62155,1.37996 0.40063,-3.91731 -20.12072,-2.04768 z m 431.92793,6.81078 c -0.51503,-0.0241 -1.04919,-0.004 -1.60253,0.0444 -2.29741,0.19612 -4.06452,0.88996 -5.29727,2.13672 -1.24676,1.26077 -1.81516,2.85792 -1.64705,4.76309 0.098,1.23275 0.51299,2.20953 1.15738,2.93798 0.36423,0.39224 0.8411,0.74616 1.51351,1.06836 l -0.93481,0.089 c -1.41487,0.1121 -2.44114,0.088 -3.07153,-0.17806 -0.9806,-0.37823 -1.52097,-1.28404 -1.64705,-2.6709 -0.084,-0.99461 0.0339,-1.73296 0.35612,-2.18122 0.1821,-0.25217 0.53106,-0.46911 0.97932,-0.62321 l -0.40063,-4.22885 c -1.4849,0.26617 -2.51617,0.99549 -3.16056,2.27026 -0.64439,1.27478 -0.88034,2.85793 -0.71223,4.7631 0.28016,3.16594 1.29244,5.26549 3.07152,6.23208 1.02263,0.56035 2.48781,0.73279 4.40698,0.57869 l 14.15573,-1.24641 -0.3116,-3.82828 -2.18123,0.17806 c 0.99461,-0.67241 1.63645,-1.51224 1.95865,-2.49284 0.18211,-0.57435 0.2481,-1.2162 0.17806,-1.95865 -0.1681,-2.00323 -1.07391,-3.52941 -2.67089,-4.49601 -1.20824,-0.71443 -2.59479,-1.08515 -4.13989,-1.15738 z m -1.29093,4.05085 c 1.00862,-0.084 1.88144,-0.0321 2.58186,0.17806 1.33082,0.40625 2.02466,1.32607 2.13672,2.67089 0.084,0.99462 -0.20387,1.78992 -0.8903,2.44832 -0.68642,0.65841 -1.74569,1.03131 -3.16056,1.15739 -1.49891,0.12607 -2.59616,-0.0628 -3.33861,-0.62321 -0.74245,-0.56034 -1.16236,-1.31519 -1.24642,-2.22574 -0.1121,-1.34482 0.44232,-2.35211 1.64705,-2.9825 0.65841,-0.35021 1.41573,-0.53915 2.27026,-0.62321 z m -323.00001,1.69157 0,137.99614 227.8717,0 0,-137.99614 -227.8717,0 z"
       id="path1116"
       style="fill:#ffffff;fill-opacity:1;fill-rule:nonzero;stroke:none" />
  </g>
</svg>
